# xmcd
#
# Track frame offsets:
#	150
#	14381
#	25824
#	40162
#	51112
#	58993
#	72574
#	92248
#	110913
#	122737
#	133242
#	149338
#
# Disc length: 2170 seconds
#
# Revision: 0
# Processed by: cddbd v1.5.1PL0 Copyright (c) Steve Scherf et al.
# Submitted via: audiograbber 1.83.01
#
DISCID=ba08780c
DTITLE=Various Artist - Country Temptations
DYEAR=1900
DGENRE=
TTITLE0=Conway Twitty- Your've never been this far before
TTITLE1=The Kendalls-Heavens Just a sin away
TTITLE2=Jerry Lee Lewis- What's made Milwaukee Famous
TTITLE3=Tammy Wynette- Womanhood
TTITLE4=Roger Miller-Dang me
TTITLE5=Conway Twitty-The game that daddies play
TTITLE6=Jerry Lee Lewis-Thirty Nine and holding
TTITLE7=Bobby Bare- Tequilla Sheila
TTITLE8=Conway Twitty- Linda ON my Mind
TTITLE9=Roger Millar-Release Me
TTITLE10=Jerry Lee Lewis- Middle Age Crazy
TTITLE11=Kenny Roders- Ruby dont take your love to town
EXTD=
EXTT0=
EXTT1=
EXTT2=
EXTT3=
EXTT4=
EXTT5=
EXTT6=
EXTT7=
EXTT8=
EXTT9=
EXTT10=
EXTT11=
PLAYORDER=
